<svg xmlns="http://www.w3.org/2000/svg" width="13" height="13" fill="none" viewBox="0 0 13 13"><path fill="#F0F1F4" d="M7.985 2.438h3.236a1.625 1.625 0 0 1 1.618 1.772l-.517 5.687a1.625 1.625 0 0 1-1.618 1.478H2.295A1.625 1.625 0 0 1 .678 9.897L.16 4.21a1.617 1.617 0 0 1 .278-1.065l-.032-.708A1.625 1.625 0 0 1 2.031.813h2.984c.43 0 .844.17 1.149.476l.672.672c.305.305.718.476 1.15.476Zm-6.761.097c.173-.063.36-.098.555-.098h4.385l-.575-.574a.813.813 0 0 0-.574-.238H2.03a.813.813 0 0 0-.812.797l.005.113Z"/></svg>