<svg xmlns="http://www.w3.org/2000/svg" width="69" height="28" fill="none" viewBox="0 0 69 28"><path fill="#F9F9FB" d="M5.976 22a.639.639 0 0 1-.432-.168.639.639 0 0 1-.168-.432V8.968H1.104A.639.639 0 0 1 .672 8.8a.639.639 0 0 1-.168-.432V5.8c0-.176.056-.32.168-.432a.639.639 0 0 1 .432-.168h12.912c.176 0 .32.056.432.168a.585.585 0 0 1 .168.432v2.568c0 .176-.056.32-.168.432a.585.585 0 0 1-.432.168H9.744V21.4c0 .16-.056.304-.168.432a.585.585 0 0 1-.432.168H5.976Zm17.427.24c-2.256 0-4.032-.552-5.328-1.656-1.296-1.104-1.984-2.728-2.064-4.872a65.198 65.198 0 0 1-.024-2.064c0-.928.008-1.624.024-2.088.08-2.112.776-3.736 2.088-4.872 1.328-1.152 3.096-1.728 5.304-1.728s3.976.576 5.304 1.728c1.328 1.136 2.024 2.76 2.088 4.872.032.928.048 1.624.048 2.088 0 .448-.016 1.136-.048 2.064-.08 2.144-.768 3.768-2.064 4.872s-3.072 1.656-5.328 1.656Zm0-3.456c.88 0 1.576-.264 2.088-.792.528-.528.808-1.336.84-2.424.032-.928.048-1.584.048-1.968 0-.416-.016-1.072-.048-1.968-.032-1.088-.312-1.896-.84-2.424s-1.224-.792-2.088-.792c-.864 0-1.56.264-2.088.792-.512.528-.792 1.336-.84 2.424a59.743 59.743 0 0 0-.024 1.968c0 .848.008 1.504.024 1.968.048 1.088.328 1.896.84 2.424s1.208.792 2.088.792ZM34.225 22a.639.639 0 0 1-.432-.168.639.639 0 0 1-.168-.432V5.8c0-.176.056-.32.168-.432a.639.639 0 0 1 .432-.168h6.24c2.352 0 4.176.56 5.472 1.68 1.296 1.12 1.976 2.744 2.04 4.872.016.464.024 1.08.024 1.848s-.008 1.376-.024 1.824c-.08 2.224-.744 3.88-1.992 4.968-1.232 1.072-3.032 1.608-5.4 1.608h-6.36Zm6.24-3.456c1.056 0 1.832-.248 2.328-.744.496-.512.76-1.32.792-2.424a27.2 27.2 0 0 0 .048-1.8c0-.736-.016-1.328-.048-1.776-.032-1.072-.32-1.864-.864-2.376-.528-.512-1.32-.768-2.376-.768h-2.4v9.888h2.52Z"/><path fill="#F9F9FB" fill-rule="evenodd" d="M60 22c4.97 0 9-3.806 9-8.5a8.108 8.108 0 0 0-1.254-4.331l-7.539 7.538-.707.707-.707-.707-3.5-3.5 1.414-1.414 2.793 2.793 6.982-6.983C64.845 5.998 62.546 5 60 5c-4.97 0-9 3.806-9 8.5s4.03 8.5 9 8.5Z" clip-rule="evenodd"/></svg>